<svg xmlns="http://www.w3.org/2000/svg" xmlns:xlink="http://www.w3.org/1999/xlink" width="500" zoomAndPan="magnify" viewBox="0 0 375 374.999991" height="500" preserveAspectRatio="xMidYMid meet" version="1.0"><defs><g/><clipPath id="abcef194d8"><path d="M 37.5 25.578125 L 337.222656 25.578125 L 337.222656 325.300781 L 37.5 325.300781 Z M 37.5 25.578125 " clip-rule="nonzero"/></clipPath><clipPath id="f90d10ffda"><path d="M 187.363281 25.578125 C 104.59375 25.578125 37.5 92.671875 37.5 175.441406 C 37.5 258.207031 104.59375 325.300781 187.363281 325.300781 C 270.128906 325.300781 337.222656 258.207031 337.222656 175.441406 C 337.222656 92.671875 270.128906 25.578125 187.363281 25.578125 Z M 187.363281 25.578125 " clip-rule="nonzero"/></clipPath><clipPath id="58b0f69417"><path d="M 17 10.4375 L 355 10.4375 L 355 340 L 17 340 Z M 17 10.4375 " clip-rule="nonzero"/></clipPath></defs><rect x="-37.5" width="450" fill="#ffffff" y="-37.499999" height="449.999989" fill-opacity="1"/><rect x="-37.5" width="450" fill="#ffffff" y="-37.499999" height="449.999989" fill-opacity="1"/><g clip-path="url(#abcef194d8)"><g clip-path="url(#f90d10ffda)"><path fill="#00154f" d="M 37.5 25.578125 L 337.222656 25.578125 L 337.222656 325.300781 L 37.5 325.300781 Z M 37.5 25.578125 " fill-opacity="1" fill-rule="nonzero"/></g></g><g fill="#ffffff" fill-opacity="1"><g transform="translate(240.946795, 248.556036)"><g><path d="M 8.21875 -6.390625 C 8.488281 -6.367188 8.703125 -6.148438 8.859375 -5.734375 C 9.023438 -5.328125 9.09375 -4.832031 9.0625 -4.25 C 9.039062 -3.769531 8.945312 -3.269531 8.78125 -2.75 C 8.625 -2.226562 8.429688 -1.78125 8.203125 -1.40625 C 7.816406 -0.820312 7.238281 -0.351562 6.46875 0 C 5.707031 0.34375 4.945312 0.492188 4.1875 0.453125 C 3.394531 0.410156 2.75 0.175781 2.25 -0.25 C 1.757812 -0.6875 1.503906 -1.226562 1.484375 -1.875 C 1.734375 -2.59375 2.117188 -3.3125 2.640625 -4.03125 C 2.441406 -4.082031 2.257812 -4.113281 2.09375 -4.125 C 1.726562 -4.144531 1.425781 -4.109375 1.1875 -4.015625 C 0.957031 -3.921875 0.765625 -3.765625 0.609375 -3.546875 L 0.296875 -3.671875 C 0.960938 -5.328125 1.867188 -6.117188 3.015625 -6.046875 C 3.222656 -6.035156 3.460938 -5.988281 3.734375 -5.90625 C 4.015625 -5.820312 4.253906 -5.722656 4.453125 -5.609375 L 3.65625 -3.75 C 3.226562 -3.507812 2.890625 -3.265625 2.640625 -3.015625 C 3.148438 -2.253906 3.960938 -1.84375 5.078125 -1.78125 C 5.554688 -1.75 6.03125 -1.785156 6.5 -1.890625 C 6.976562 -2.003906 7.394531 -2.171875 7.75 -2.390625 L 7.703125 -3.140625 L 7 -3.171875 C 6.601562 -3.191406 6.296875 -3.269531 6.078125 -3.40625 C 5.859375 -3.539062 5.753906 -3.710938 5.765625 -3.921875 C 5.785156 -4.191406 5.941406 -4.523438 6.234375 -4.921875 C 6.535156 -5.316406 6.878906 -5.660156 7.265625 -5.953125 C 7.660156 -6.253906 7.976562 -6.398438 8.21875 -6.390625 Z M 8.21875 -6.390625 "/></g></g></g><g fill="#ffffff" fill-opacity="1"><g transform="translate(250.090016, 249.074235)"><g><path d="M 0.921875 -0.078125 C 0.992188 -1.035156 1.035156 -2.191406 1.046875 -3.546875 C 1.054688 -4.910156 1.039062 -6.128906 1 -7.203125 C 1.300781 -7.515625 1.632812 -7.816406 2 -8.109375 C 2.363281 -8.410156 2.691406 -8.625 2.984375 -8.75 C 3.035156 -8.53125 3.046875 -8.097656 3.015625 -7.453125 C 2.960938 -6.554688 2.851562 -5.5 2.6875 -4.28125 C 2.53125 -3.070312 2.414062 -2.359375 2.34375 -2.140625 L 1.25 0.078125 Z M 0.921875 -0.078125 "/></g></g></g><g fill="#ffffff" fill-opacity="1"><g transform="translate(253.262456, 249.254036)"><g><path d="M 2.46875 0.359375 C 2.03125 0.335938 1.515625 0.191406 0.921875 -0.078125 C 0.328125 -0.347656 -0.0859375 -0.613281 -0.328125 -0.875 C 0.617188 -1.09375 1.648438 -1.382812 2.765625 -1.75 C 3.878906 -2.113281 4.726562 -2.445312 5.3125 -2.75 L 5.6875 -3.609375 L 6.140625 -3.515625 C 6.003906 -2.847656 5.773438 -2.210938 5.453125 -1.609375 C 5.128906 -1.003906 4.710938 -0.515625 4.203125 -0.140625 C 3.703125 0.234375 3.125 0.398438 2.46875 0.359375 Z M 5.625 -4.671875 C 5.300781 -4.960938 4.976562 -5.40625 4.65625 -6 L 6.09375 -6.859375 L 6.28125 -6.515625 C 6.53125 -6.023438 6.742188 -5.65625 6.921875 -5.40625 Z M 5.625 -4.671875 "/></g></g></g><g fill="#ffffff" fill-opacity="1"><g transform="translate(259.367911, 249.600067)"><g><path d="M 7.921875 -4.625 L 7.171875 -2.9375 L 6.84375 -2.6875 L 6.046875 -2.65625 C 5.722656 -1.738281 5.265625 -0.976562 4.671875 -0.375 C 4.085938 0.21875 3.382812 0.488281 2.5625 0.4375 C 2.125 0.414062 1.601562 0.269531 1 0 C 0.40625 -0.269531 -0.00390625 -0.535156 -0.234375 -0.796875 C 0.691406 -1.015625 1.703125 -1.296875 2.796875 -1.640625 C 3.898438 -1.984375 4.773438 -2.304688 5.421875 -2.609375 L 6.265625 -4.125 C 6.429688 -4.40625 6.59375 -4.59375 6.75 -4.6875 C 6.90625 -4.789062 7.160156 -4.851562 7.515625 -4.875 L 7.84375 -4.90625 Z M 7.921875 -4.625 "/></g></g></g><g fill="#ffffff" fill-opacity="1"><g transform="translate(266.229631, 246.700336)"><g><path d="M 3.9375 -4.4375 C 4.289062 -4.414062 4.585938 -4.328125 4.828125 -4.171875 C 5.078125 -4.023438 5.195312 -3.851562 5.1875 -3.65625 C 5.164062 -3.164062 5.0625 -2.6875 4.875 -2.21875 C 4.6875 -1.757812 4.453125 -1.359375 4.171875 -1.015625 C 3.890625 -0.679688 3.597656 -0.441406 3.296875 -0.296875 C 2.441406 -0.015625 1.335938 0.15625 -0.015625 0.21875 L 0.984375 -2.015625 L 1.421875 -2.015625 C 1.617188 -2.023438 1.765625 -2.039062 1.859375 -2.0625 C 1.804688 -2.1875 1.785156 -2.296875 1.796875 -2.390625 C 1.804688 -2.609375 1.90625 -2.925781 2.09375 -3.34375 C 2.28125 -3.757812 2.46875 -4.023438 2.65625 -4.140625 C 2.800781 -4.234375 2.988281 -4.304688 3.21875 -4.359375 C 3.445312 -4.421875 3.6875 -4.445312 3.9375 -4.4375 Z M 3.9375 -4.4375 "/></g></g></g><g fill="#ffffff" fill-opacity="1"><g transform="translate(271.460942, 250.285449)"><g/></g></g><g fill="#ffffff" fill-opacity="1"><g transform="translate(274.004886, 250.429629)"><g><path d="M 10.765625 -7.640625 L 10 -5.921875 L 9.671875 -5.65625 C 8.921875 -5.632812 7.988281 -5.554688 6.875 -5.421875 C 7.332031 -5.367188 7.785156 -5.28125 8.234375 -5.15625 C 8.679688 -5.03125 9.050781 -4.910156 9.34375 -4.796875 C 9.132812 -3.773438 8.925781 -2.984375 8.71875 -2.421875 C 8.507812 -1.867188 8.265625 -1.445312 7.984375 -1.15625 C 7.503906 -0.664062 6.828125 -0.269531 5.953125 0.03125 C 5.078125 0.332031 4.1875 0.457031 3.28125 0.40625 C 2.507812 0.363281 1.859375 0.117188 1.328125 -0.328125 C 0.796875 -0.785156 0.519531 -1.394531 0.5 -2.15625 C 0.894531 -3.070312 1.367188 -3.914062 1.921875 -4.6875 C 2.484375 -5.457031 3.179688 -6.191406 4.015625 -6.890625 L 4.265625 -5.46875 C 3.691406 -5.070312 3.222656 -4.703125 2.859375 -4.359375 C 2.492188 -4.023438 2.164062 -3.660156 1.875 -3.265625 C 2.113281 -2.847656 2.429688 -2.523438 2.828125 -2.296875 C 3.222656 -2.066406 3.734375 -1.9375 4.359375 -1.90625 C 5.128906 -1.851562 5.859375 -1.9375 6.546875 -2.15625 C 7.234375 -2.375 7.800781 -2.679688 8.25 -3.078125 C 7.84375 -3.222656 7.289062 -3.367188 6.59375 -3.515625 C 5.894531 -3.671875 5.28125 -3.773438 4.75 -3.828125 C 5.21875 -5.128906 5.757812 -6.21875 6.375 -7.09375 C 6.925781 -7.3125 7.578125 -7.488281 8.328125 -7.625 C 9.078125 -7.757812 9.863281 -7.847656 10.6875 -7.890625 Z M 2.765625 1.859375 L 5.5 1.28125 L 5.109375 2.8125 L 2.4375 3.25 Z M 2.765625 1.859375 "/></g></g></g><g fill="#ffffff" fill-opacity="1"><g transform="translate(283.681462, 244.761199)"><g><path d="M 1 -2.234375 L 6.4375 -2.484375 L 6.515625 -2.234375 L 5.78125 -0.515625 L 5.453125 -0.25 L 0 0 Z M 1 -2.234375 "/></g></g></g><g fill="#ffffff" fill-opacity="1"><g transform="translate(289.219847, 244.279219)"><g><path d="M 4.4375 -1.90625 L 3.6875 -0.203125 L 3.375 0.046875 L 1.703125 0.125 L 1.921875 -0.46875 C 1.554688 -0.0507812 0.882812 0.175781 -0.09375 0.21875 L 0.90625 -2.015625 C 1.613281 -2.035156 2.179688 -2.144531 2.609375 -2.34375 L 3.015625 -3.421875 L 3.484375 -3.359375 L 3.140625 -2.125 L 4.375 -2.1875 Z M 0.34375 1.703125 L 3.109375 1.109375 L 2.703125 2.640625 L 0.015625 3.09375 Z M 0.34375 1.703125 "/></g></g></g><g fill="#ffffff" fill-opacity="1"><g transform="translate(292.593141, 244.11)"><g><path d="M 6.5 -2.28125 L 5.515625 -0.046875 L -0.015625 0.21875 L 0.984375 -2.015625 L 1.78125 -2.046875 C 1.769531 -2.085938 1.765625 -2.148438 1.765625 -2.234375 C 1.785156 -2.523438 1.894531 -2.863281 2.09375 -3.25 C 2.289062 -3.644531 2.53125 -4.019531 2.8125 -4.375 C 3.09375 -4.726562 3.335938 -4.984375 3.546875 -5.140625 C 3.796875 -5.304688 4.210938 -5.457031 4.796875 -5.59375 C 5.390625 -5.738281 5.882812 -5.8125 6.28125 -5.8125 L 5.53125 -3.734375 C 4.65625 -3.710938 3.863281 -3.601562 3.15625 -3.40625 C 3.3125 -3.132812 3.523438 -2.882812 3.796875 -2.65625 C 4.078125 -2.425781 4.375 -2.269531 4.6875 -2.1875 Z M 6.5 -2.28125 "/></g></g></g><g fill="#ffffff" fill-opacity="1"><g transform="translate(298.521483, 251.819127)"><g/></g></g><g fill="#ffffff" fill-opacity="1"><g transform="translate(301.065427, 251.963307)"><g><path d="M 8.578125 -4.15625 L 7.828125 -2.421875 L 7.484375 -2.171875 L 7.015625 -2.15625 C 6.921875 -1.9375 6.804688 -1.71875 6.671875 -1.5 C 6.304688 -0.914062 5.75 -0.445312 5 -0.09375 C 4.25 0.257812 3.5 0.414062 2.75 0.375 C 1.96875 0.332031 1.320312 0.0976562 0.8125 -0.328125 C 0.300781 -0.753906 0.0390625 -1.296875 0.03125 -1.953125 C 0.25 -2.609375 0.582031 -3.304688 1.03125 -4.046875 C 1.488281 -4.785156 2.023438 -5.488281 2.640625 -6.15625 C 3.117188 -6.050781 3.628906 -5.894531 4.171875 -5.6875 L 3.421875 -3.859375 C 3.128906 -4.003906 2.789062 -4.132812 2.40625 -4.25 C 2.0625 -3.925781 1.675781 -3.507812 1.25 -3 C 1.488281 -2.664062 1.8125 -2.398438 2.21875 -2.203125 C 2.625 -2.003906 3.078125 -1.890625 3.578125 -1.859375 C 4.117188 -1.828125 4.628906 -1.878906 5.109375 -2.015625 C 5.597656 -2.160156 6.019531 -2.375 6.375 -2.65625 C 6.15625 -3.332031 5.726562 -3.96875 5.09375 -4.5625 L 6.765625 -6.1875 C 6.960938 -5.957031 7.140625 -5.664062 7.296875 -5.3125 C 7.453125 -4.957031 7.539062 -4.640625 7.5625 -4.359375 L 8.5 -4.390625 Z M 8.578125 -4.15625 "/></g></g></g><g fill="#ffffff" fill-opacity="1"><g transform="translate(308.574431, 249.565774)"><g><path d="M 3.09375 -3.515625 C 2.882812 -2.191406 2.492188 -1.023438 1.921875 -0.015625 C 1.460938 0.0976562 0.816406 0.175781 -0.015625 0.21875 L 0.984375 -2.015625 C 1.492188 -2.035156 1.898438 -2.082031 2.203125 -2.15625 C 2.378906 -2.707031 2.519531 -3.171875 2.625 -3.546875 Z M 0.828125 3.25 C 0.492188 2.957031 0.164062 2.507812 -0.15625 1.90625 L 1.296875 1.046875 L 1.484375 1.40625 C 1.742188 1.882812 1.957031 2.25 2.125 2.5 Z M 0.828125 3.25 "/></g></g></g><g fill="#ffffff" fill-opacity="1"><g transform="translate(97.432439, 167.939579)"><g><path d="M 117.703125 -64.703125 C 117.578125 -64.390625 117.453125 -64.070312 117.328125 -63.75 C 116.078125 -60.488281 114.726562 -57.285156 113.28125 -54.140625 C 105.800781 -38.609375 97.769531 -23.582031 89.1875 -9.0625 C 86.40625 -4.375 83.554688 0.226562 80.640625 4.75 C 77.722656 9.269531 74.789062 13.773438 71.84375 18.265625 C 71.144531 19.316406 70.4375 20.367188 69.71875 21.421875 C 69.6875 21.515625 69.65625 21.578125 69.625 21.609375 C 69.457031 21.929688 69.265625 22.195312 69.046875 22.40625 C 68.835938 22.625 68.554688 22.734375 68.203125 22.734375 C 68.035156 22.734375 67.863281 22.691406 67.6875 22.609375 C 67.507812 22.535156 67.367188 22.4375 67.265625 22.3125 C 67.171875 22.207031 67.101562 22.03125 67.0625 21.78125 C 67.03125 21.539062 67.050781 21.351562 67.125 21.21875 C 67.601562 20.175781 68.140625 19.191406 68.734375 18.265625 C 70.054688 16.097656 71.390625 13.929688 72.734375 11.765625 C 75.253906 7.742188 77.726562 3.710938 80.15625 -0.328125 C 85.550781 -9.335938 90.707031 -18.535156 95.625 -27.921875 C 100.539062 -37.304688 105.34375 -46.789062 110.03125 -56.375 C 111.90625 -60.070312 113.453125 -64.03125 114.671875 -68.25 C 114.921875 -68.976562 115.113281 -69.734375 115.25 -70.515625 C 115.382812 -71.304688 115.453125 -72.125 115.453125 -72.96875 C 115.328125 -74.769531 114.554688 -75.554688 113.140625 -75.328125 C 111.890625 -75.078125 110.710938 -74.6875 109.609375 -74.15625 C 106.972656 -72.882812 104.378906 -71.476562 101.828125 -69.9375 C 88.097656 -61.601562 75.59375 -51.257812 64.3125 -38.90625 C 64.144531 -38.707031 63.960938 -38.515625 63.765625 -38.328125 C 59.867188 -34.085938 56.003906 -29.8125 52.171875 -25.5 C 48.335938 -21.195312 44.613281 -16.765625 41 -12.203125 C 40.25 -11.253906 39.460938 -10.367188 38.640625 -9.546875 C 37.765625 -8.628906 36.71875 -8.269531 35.5 -8.46875 C 34.988281 -8.539062 34.566406 -8.796875 34.234375 -9.234375 C 33.898438 -9.671875 33.769531 -10.1875 33.84375 -10.78125 C 34.09375 -12.382812 34.453125 -13.941406 34.921875 -15.453125 C 36.367188 -20.203125 37.90625 -24.894531 39.53125 -29.53125 C 39.757812 -30.238281 39.972656 -30.925781 40.171875 -31.59375 C 40.597656 -33.320312 41.207031 -34.921875 42 -36.390625 C 42 -36.421875 41.976562 -36.4375 41.9375 -36.4375 C 41.738281 -36.550781 41.539062 -36.640625 41.34375 -36.703125 C 41.15625 -36.765625 40.960938 -36.695312 40.765625 -36.5 C 40.046875 -35.707031 39.359375 -34.882812 38.703125 -34.03125 C 33.265625 -26.664062 27.878906 -19.238281 22.546875 -11.75 C 17.222656 -4.257812 12.023438 3.359375 6.953125 11.109375 C 6.515625 11.859375 6.03125 12.46875 5.5 12.9375 C 4.976562 13.414062 4.28125 13.570312 3.40625 13.40625 C 3.007812 13.300781 2.703125 13.0625 2.484375 12.6875 C 2.273438 12.3125 2.234375 11.941406 2.359375 11.578125 C 2.828125 10.523438 3.335938 9.523438 3.890625 8.578125 C 5.460938 5.859375 7.019531 3.140625 8.5625 0.421875 C 11.644531 -4.953125 14.707031 -10.359375 17.75 -15.796875 C 22.46875 -24.128906 26.679688 -32.898438 30.390625 -42.109375 C 31.835938 -45.640625 33.015625 -49.359375 33.921875 -53.265625 C 34.421875 -55.335938 34.632812 -57.5 34.5625 -59.75 C 34.332031 -63.363281 33.132812 -65.945312 30.96875 -67.5 C 28.8125 -69.050781 25.96875 -69.785156 22.4375 -69.703125 C 18.914062 -69.628906 15.007812 -68.910156 10.71875 -67.546875 C 6.4375 -66.191406 2.046875 -64.394531 -2.453125 -62.15625 C -6.960938 -59.925781 -11.3125 -57.460938 -15.5 -54.765625 C -19.6875 -52.066406 -23.410156 -49.328125 -26.671875 -46.546875 C -29.929688 -43.773438 -32.472656 -41.175781 -34.296875 -38.75 C -36.210938 -36.070312 -37.84375 -33.125 -39.1875 -29.90625 C -39.863281 -28.363281 -40.253906 -26.691406 -40.359375 -24.890625 C -40.390625 -24.523438 -40.566406 -24.253906 -40.890625 -24.078125 C -41.210938 -23.898438 -41.570312 -23.847656 -41.96875 -23.921875 C -42.59375 -24.117188 -42.988281 -24.609375 -43.15625 -25.390625 C -43.257812 -26.429688 -43.175781 -27.378906 -42.90625 -28.234375 C -42.3125 -30.398438 -41.523438 -32.445312 -40.546875 -34.375 C -38.742188 -37.757812 -36 -41.210938 -32.3125 -44.734375 C -28.632812 -48.253906 -24.34375 -51.628906 -19.4375 -54.859375 C -14.539062 -58.085938 -9.425781 -60.960938 -4.09375 -63.484375 C 1.226562 -66.015625 6.4375 -67.984375 11.53125 -69.390625 C 16.625 -70.796875 21.210938 -71.425781 25.296875 -71.28125 C 29.390625 -71.132812 32.613281 -70.007812 34.96875 -67.90625 C 37.332031 -65.8125 38.476562 -62.503906 38.40625 -57.984375 C 38.28125 -55.066406 37.820312 -52.296875 37.03125 -49.671875 C 35.882812 -45.804688 34.566406 -42.070312 33.078125 -38.46875 C 31.585938 -34.863281 30 -31.335938 28.3125 -27.890625 C 27.800781 -26.816406 27.691406 -26.289062 27.984375 -26.3125 C 28.273438 -26.34375 28.71875 -26.753906 29.3125 -27.546875 C 31.4375 -30.367188 33.5625 -33.15625 35.6875 -35.90625 C 37.132812 -37.75 38.613281 -39.554688 40.125 -41.328125 C 40.3125 -41.578125 40.503906 -41.816406 40.703125 -42.046875 C 41.566406 -43.097656 42.601562 -43.804688 43.8125 -44.171875 C 44.726562 -44.367188 45.5 -44.160156 46.125 -43.546875 C 46.75 -42.941406 46.960938 -42.03125 46.765625 -40.8125 C 46.734375 -40.6875 46.695312 -40.5625 46.65625 -40.4375 C 46.332031 -38.863281 45.957031 -37.335938 45.53125 -35.859375 C 44.382812 -32.222656 43.207031 -28.617188 42 -25.046875 C 41.40625 -23.203125 40.8125 -21.332031 40.21875 -19.4375 C 40.09375 -19.175781 39.914062 -18.6875 39.6875 -17.96875 C 39.457031 -17.34375 39.234375 -16.722656 39.015625 -16.109375 C 38.804688 -15.503906 38.640625 -15.039062 38.515625 -14.71875 C 38.671875 -14.84375 40.125 -16.476562 42.875 -19.625 C 46.613281 -23.914062 51.039062 -28.941406 56.15625 -34.703125 C 61.269531 -40.460938 65.285156 -44.859375 68.203125 -47.890625 C 73.578125 -53.304688 79.242188 -58.234375 85.203125 -62.671875 C 91.171875 -67.117188 97.351562 -71.140625 103.75 -74.734375 C 105.320312 -75.554688 106.941406 -76.300781 108.609375 -76.96875 C 108.960938 -77.09375 109.3125 -77.234375 109.65625 -77.390625 C 111.226562 -78.015625 112.898438 -78.25 114.671875 -78.09375 C 118.066406 -77.769531 119.625 -75.625 119.34375 -71.65625 C 119.144531 -69.1875 118.597656 -66.867188 117.703125 -64.703125 Z M 41.8125 -36.609375 C 41.894531 -36.535156 41.957031 -36.476562 42 -36.4375 C 42 -36.4375 42 -36.421875 42 -36.390625 C 42.03125 -36.390625 42.046875 -36.40625 42.046875 -36.4375 C 41.972656 -36.476562 41.894531 -36.535156 41.8125 -36.609375 Z M 41.8125 -36.609375 "/></g></g></g><g fill="#ffffff" fill-opacity="1"><g transform="translate(198.49254, 167.939579)"><g><path d="M 15.28125 -10.296875 C 14.25 -9.273438 13.039062 -8.398438 11.65625 -7.671875 C 10.28125 -6.953125 9.128906 -6.476562 8.203125 -6.25 C 7.273438 -6.03125 6.320312 -5.90625 5.34375 -5.875 C 3.769531 -5.800781 2.320312 -6.015625 1 -6.515625 C -1.164062 -7.390625 -1.921875 -9.0625 -1.265625 -11.53125 C -0.640625 -13.65625 0.628906 -15.316406 2.546875 -16.515625 C 4.460938 -17.710938 6.4375 -18.296875 8.46875 -18.265625 C 8.46875 -18.265625 8.488281 -18.265625 8.53125 -18.265625 C 9.050781 -18.296875 9.539062 -18.257812 10 -18.15625 C 10.789062 -17.863281 11.289062 -17.394531 11.5 -16.75 C 11.71875 -16.113281 11.578125 -15.398438 11.078125 -14.609375 C 9.929688 -12.878906 8.375 -11.914062 6.40625 -11.71875 C 5.101562 -11.59375 3.84375 -11.65625 2.625 -11.90625 C 2.394531 -11.9375 2.191406 -11.875 2.015625 -11.71875 C 1.835938 -11.5625 1.726562 -11.363281 1.6875 -11.125 C 1.332031 -9.59375 1.804688 -8.609375 3.109375 -8.171875 C 4.722656 -7.617188 6.394531 -7.617188 8.125 -8.171875 C 10.125 -8.804688 12.023438 -9.988281 13.828125 -11.71875 C 15.640625 -13.457031 16.679688 -14.265625 16.953125 -14.140625 C 17.234375 -14.023438 17.320312 -13.691406 17.21875 -13.140625 C 16.96875 -12.265625 16.320312 -11.316406 15.28125 -10.296875 Z M 3.859375 -14.609375 C 3.753906 -14.484375 3.675781 -14.34375 3.625 -14.1875 C 3.582031 -14.039062 3.644531 -13.90625 3.8125 -13.78125 C 4.4375 -13.425781 5.113281 -13.296875 5.84375 -13.390625 C 6.582031 -13.492188 7.203125 -13.769531 7.703125 -14.21875 C 8.210938 -14.675781 8.429688 -15.238281 8.359375 -15.90625 C 8.304688 -16.132812 8.179688 -16.28125 7.984375 -16.34375 C 7.796875 -16.40625 7.601562 -16.421875 7.40625 -16.390625 C 6.082031 -16.148438 4.898438 -15.554688 3.859375 -14.609375 Z M 3.859375 -14.609375 "/></g></g></g><g fill="#ffffff" fill-opacity="1"><g transform="translate(214.098, 167.939579)"><g><path d="M 12.859375 -16.453125 C 12.703125 -15.222656 12.125 -14.421875 11.125 -14.046875 C 10.125 -13.671875 9.796875 -14.160156 10.140625 -15.515625 C 10.492188 -16.878906 9.882812 -17.222656 8.3125 -16.546875 C 6.738281 -15.878906 5.441406 -15.039062 4.421875 -14.03125 C 2.847656 -12.414062 1.453125 -10.679688 0.234375 -8.828125 C 0.109375 -8.660156 0.015625 -8.523438 -0.046875 -8.421875 C -0.410156 -7.898438 -0.769531 -7.410156 -1.125 -6.953125 C -1.351562 -6.628906 -1.625 -6.425781 -1.9375 -6.34375 C -2.25 -6.257812 -2.566406 -6.242188 -2.890625 -6.296875 C -3.203125 -6.335938 -3.4375 -6.457031 -3.59375 -6.65625 C -3.75 -6.851562 -3.765625 -7.082031 -3.640625 -7.34375 C -3.453125 -7.832031 -3.222656 -8.328125 -2.953125 -8.828125 C -1.335938 -11.804688 0.296875 -14.800781 1.953125 -17.8125 C 1.992188 -17.84375 2.015625 -17.875 2.015625 -17.90625 C 2.242188 -18.375 2.519531 -18.804688 2.84375 -19.203125 C 3.195312 -19.597656 3.609375 -19.757812 4.078125 -19.6875 C 4.546875 -19.613281 4.859375 -19.335938 5.015625 -18.859375 C 5.210938 -18.222656 5.378906 -17.863281 5.515625 -17.78125 C 5.660156 -17.707031 5.984375 -17.769531 6.484375 -17.96875 C 7.554688 -18.363281 8.601562 -18.640625 9.625 -18.796875 C 10.644531 -18.960938 11.476562 -18.921875 12.125 -18.671875 C 12.78125 -18.429688 13.023438 -17.691406 12.859375 -16.453125 Z M 12.859375 -16.453125 "/></g></g></g><g fill="#ffffff" fill-opacity="1"><g transform="translate(227.504753, 167.939579)"><g><path d="M 4 -10.734375 C 3.332031 -10.242188 3 -9.898438 3 -9.703125 C 3 -9.503906 3.210938 -9.390625 3.640625 -9.359375 C 4.078125 -9.328125 4.550781 -9.3125 5.0625 -9.3125 C 5.226562 -9.34375 5.363281 -9.359375 5.46875 -9.359375 C 7.164062 -9.328125 8.800781 -9.09375 10.375 -8.65625 C 10.84375 -8.5 11.300781 -8.273438 11.75 -7.984375 C 11.78125 -7.953125 11.796875 -7.9375 11.796875 -7.9375 C 11.867188 -7.90625 11.925781 -7.828125 11.96875 -7.703125 C 12.019531 -7.585938 12.015625 -7.488281 11.953125 -7.40625 C 11.953125 -7.332031 11.90625 -7.265625 11.8125 -7.203125 C 11.71875 -7.140625 11.632812 -7.085938 11.5625 -7.046875 C 11.238281 -6.984375 10.925781 -6.96875 10.625 -7 C 7.3125 -7.394531 4.003906 -7.570312 0.703125 -7.53125 C 0.078125 -7.53125 -0.566406 -7.53125 -1.234375 -7.53125 C -1.429688 -7.53125 -1.65625 -7.515625 -1.90625 -7.484375 C -2.363281 -7.429688 -2.789062 -7.441406 -3.1875 -7.515625 C -3.582031 -7.597656 -3.84375 -7.898438 -3.96875 -8.421875 C -4.039062 -8.816406 -3.9375 -9.101562 -3.65625 -9.28125 C -3.382812 -9.457031 -3.050781 -9.597656 -2.65625 -9.703125 C -2.382812 -9.796875 -2.132812 -9.914062 -1.90625 -10.0625 C 0.90625 -11.632812 3.601562 -13.367188 6.1875 -15.265625 C 7.25 -16.015625 8.171875 -16.878906 8.953125 -17.859375 C 9.191406 -18.160156 9.242188 -18.441406 9.109375 -18.703125 C 8.972656 -18.960938 8.707031 -19.109375 8.3125 -19.140625 C 7.09375 -19.265625 5.914062 -19.171875 4.78125 -18.859375 C 4.738281 -18.859375 4.71875 -18.859375 4.71875 -18.859375 C 3.894531 -18.617188 3.046875 -18.398438 2.171875 -18.203125 C 1.742188 -18.140625 1.367188 -18.273438 1.046875 -18.609375 C 0.941406 -18.804688 0.945312 -19.015625 1.0625 -19.234375 C 1.175781 -19.460938 1.410156 -19.648438 1.765625 -19.796875 C 4.328125 -20.867188 7 -21.242188 9.78125 -20.921875 C 10.445312 -20.804688 11.078125 -20.609375 11.671875 -20.328125 C 12.804688 -19.734375 13.082031 -18.894531 12.5 -17.8125 C 11.832031 -16.625 10.910156 -15.613281 9.734375 -14.78125 C 8.191406 -13.65625 6.617188 -12.535156 5.015625 -11.421875 C 4.660156 -11.191406 4.320312 -10.960938 4 -10.734375 Z M 4 -10.734375 "/></g></g></g><g fill="#ffffff" fill-opacity="1"><g transform="translate(240.884692, 167.939579)"><g><path d="M 19.453125 -13.65625 C 19.878906 -13.414062 19.910156 -12.832031 19.546875 -11.90625 C 19.023438 -11.226562 18.46875 -10.59375 17.875 -10 C 17.289062 -9.414062 16.648438 -8.890625 15.953125 -8.421875 C 15.898438 -8.421875 15.875 -8.398438 15.875 -8.359375 C 15.40625 -8.046875 14.914062 -7.769531 14.40625 -7.53125 C 10.125 -6 7.941406 -6.90625 7.859375 -10.25 C 6.117188 -8.738281 4.957031 -7.816406 4.375 -7.484375 C 2.957031 -6.640625 1.425781 -6.265625 -0.21875 -6.359375 C -1.425781 -6.429688 -2.25 -6.800781 -2.6875 -7.46875 C -3.132812 -8.132812 -3.097656 -9.039062 -2.578125 -10.1875 C -1.785156 -12 -0.664062 -13.609375 0.78125 -15.015625 C 2.476562 -16.585938 4.363281 -17.847656 6.4375 -18.796875 C 7.539062 -19.347656 8.703125 -19.5625 9.921875 -19.4375 C 11.140625 -19.363281 11.875 -18.675781 12.125 -17.375 C 12.226562 -16.976562 12.128906 -16.628906 11.828125 -16.328125 C 11.429688 -15.972656 10.972656 -15.894531 10.453125 -16.09375 C 10.421875 -16.09375 10.375 -16.097656 10.3125 -16.109375 C 10.25 -16.128906 10.195312 -16.160156 10.15625 -16.203125 C 9.644531 -16.910156 9.125 -17.207031 8.59375 -17.09375 C 8.0625 -16.976562 7.503906 -16.742188 6.921875 -16.390625 C 4.160156 -14.773438 2.113281 -12.53125 0.78125 -9.65625 C 0.707031 -9.53125 0.660156 -9.390625 0.640625 -9.234375 C 0.617188 -9.085938 0.664062 -8.96875 0.78125 -8.875 C 1.101562 -8.769531 1.457031 -8.789062 1.84375 -8.9375 C 2.238281 -9.09375 2.632812 -9.316406 3.03125 -9.609375 C 3.425781 -9.910156 3.753906 -10.15625 4.015625 -10.34375 C 4.054688 -10.40625 4.078125 -10.4375 4.078125 -10.4375 C 5.378906 -11.519531 6.65625 -12.632812 7.90625 -13.78125 C 8.46875 -14.375 9.15625 -14.707031 9.96875 -14.78125 C 11.15625 -14.78125 11.648438 -14.25 11.453125 -13.1875 C 11.347656 -12.800781 11.234375 -12.410156 11.109375 -12.015625 C 10.640625 -10.316406 10.617188 -9.316406 11.046875 -9.015625 C 11.472656 -8.722656 12.128906 -8.722656 13.015625 -9.015625 C 13.898438 -9.316406 14.785156 -9.878906 15.671875 -10.703125 C 16.554688 -11.535156 17.300781 -12.296875 17.90625 -12.984375 C 18.519531 -13.679688 19.035156 -13.90625 19.453125 -13.65625 Z M 19.453125 -13.65625 "/></g></g></g><g fill="#ffffff" fill-opacity="1"><g transform="translate(258.662046, 167.939579)"><g><path d="M 20.78125 -13.671875 C 20.925781 -13.472656 20.960938 -13.273438 20.890625 -13.078125 C 20.816406 -12.890625 20.679688 -12.710938 20.484375 -12.546875 C 19.253906 -11.441406 17.878906 -10.554688 16.359375 -9.890625 C 13.742188 -8.679688 11.007812 -7.929688 8.15625 -7.640625 C 5.90625 -7.410156 3.757812 -7.75 1.71875 -8.65625 C 0.96875 -9 0.410156 -8.820312 0.046875 -8.125 C -0.453125 -7.144531 -0.976562 -6.160156 -1.53125 -5.171875 C -1.800781 -4.617188 -2.09375 -4.046875 -2.40625 -3.453125 C -2.445312 -3.390625 -2.484375 -3.3125 -2.515625 -3.21875 C -2.640625 -3.019531 -2.757812 -2.832031 -2.875 -2.65625 C -3 -2.476562 -3.203125 -2.351562 -3.484375 -2.28125 C -3.628906 -2.238281 -3.78125 -2.21875 -3.9375 -2.21875 C -4.101562 -2.21875 -4.25 -2.253906 -4.375 -2.328125 C -4.476562 -2.421875 -4.570312 -2.539062 -4.65625 -2.6875 C -4.738281 -2.84375 -4.78125 -3.003906 -4.78125 -3.171875 C -4.644531 -3.679688 -4.460938 -4.1875 -4.234375 -4.6875 C -3.734375 -5.832031 -3.242188 -6.960938 -2.765625 -8.078125 C -1.546875 -10.898438 -0.265625 -13.6875 1.078125 -16.4375 C 4.773438 -24.039062 8.296875 -31.710938 11.640625 -39.453125 C 11.910156 -40.203125 12.273438 -40.867188 12.734375 -41.453125 C 13.097656 -41.890625 13.59375 -42.007812 14.21875 -41.8125 C 14.851562 -41.539062 15.046875 -41.082031 14.796875 -40.4375 C 14.367188 -39.113281 13.90625 -37.78125 13.40625 -36.4375 C 10.925781 -30.3125 8.207031 -24.296875 5.25 -18.390625 C 4.625 -17.128906 4.398438 -16.332031 4.578125 -16 C 4.765625 -15.664062 5.1875 -15.632812 5.84375 -15.90625 C 6.507812 -16.1875 7.28125 -16.5625 8.15625 -17.03125 C 8.78125 -17.382812 9.40625 -17.695312 10.03125 -17.96875 C 10.15625 -18.0625 10.269531 -18.125 10.375 -18.15625 C 11.125 -18.582031 11.9375 -18.816406 12.8125 -18.859375 C 13.15625 -18.859375 13.40625 -18.703125 13.5625 -18.390625 C 13.65625 -18.203125 13.660156 -18.035156 13.578125 -17.890625 C 13.503906 -17.742188 13.40625 -17.632812 13.28125 -17.5625 C 11.9375 -16.78125 10.578125 -16.03125 9.203125 -15.3125 C 8.535156 -15.007812 7.847656 -14.679688 7.140625 -14.328125 C 6.441406 -14.003906 5.75 -13.660156 5.0625 -13.296875 C 4.601562 -13.035156 4.175781 -12.722656 3.78125 -12.359375 C 2.863281 -11.410156 2.960938 -10.625 4.078125 -10 C 4.984375 -9.601562 5.894531 -9.394531 6.8125 -9.375 C 7.738281 -9.363281 8.660156 -9.472656 9.578125 -9.703125 C 12.398438 -10.328125 15.050781 -11.359375 17.53125 -12.796875 C 17.726562 -12.898438 17.925781 -13 18.125 -13.09375 C 18.59375 -13.394531 19.085938 -13.660156 19.609375 -13.890625 C 19.804688 -13.984375 20.019531 -14.019531 20.25 -14 C 20.476562 -13.976562 20.65625 -13.867188 20.78125 -13.671875 Z M 20.78125 -13.671875 "/></g></g></g><g fill="#ffffff" fill-opacity="1"><g transform="translate(134.276186, 244.439574)"><g><path d="M 191.390625 17.828125 C 191.460938 17.867188 191.507812 17.953125 191.53125 18.078125 C 191.5625 18.203125 191.578125 18.300781 191.578125 18.375 C 191.523438 18.5 191.460938 18.59375 191.390625 18.65625 C 191.316406 18.726562 191.238281 18.796875 191.15625 18.859375 C 190.800781 18.992188 190.453125 19.046875 190.109375 19.015625 C 189.753906 19.015625 189.414062 18.992188 189.09375 18.953125 C 188.925781 18.921875 188.789062 18.90625 188.6875 18.90625 C 187.019531 18.75 185.363281 18.570312 183.71875 18.375 C 179.863281 17.976562 176.03125 17.601562 172.21875 17.25 C 164.820312 16.582031 157.410156 15.972656 149.984375 15.421875 C 139.597656 14.703125 129.195312 14.144531 118.78125 13.75 C 111.300781 13.488281 103.828125 13.296875 96.359375 13.171875 C 95.535156 13.128906 94.703125 13.109375 93.859375 13.109375 C 93.003906 13.109375 92.164062 13.09375 91.34375 13.0625 C 86.257812 12.9375 81.179688 12.875 76.109375 12.875 L 76 12.875 C 73.007812 12.875 70.039062 12.9375 67.09375 13.0625 C 65.988281 13.09375 64.910156 13.109375 63.859375 13.109375 C 62.515625 13.148438 61.15625 13.410156 59.78125 13.890625 C 49.457031 17.503906 39.03125 20.160156 28.5 21.859375 C 25.46875 22.359375 22.441406 22.773438 19.421875 23.109375 C 16.398438 23.453125 13.367188 23.625 10.328125 23.625 C 9.335938 23.625 8.351562 23.609375 7.375 23.578125 C 5.894531 23.578125 4.460938 23.378906 3.078125 22.984375 C 2.523438 22.859375 2.007812 22.679688 1.53125 22.453125 C 1.101562 22.285156 0.738281 22.050781 0.4375 21.75 C 0.144531 21.457031 0.015625 21.054688 0.046875 20.546875 C 0.140625 20.046875 0.359375 19.613281 0.703125 19.25 C 1.054688 18.894531 1.457031 18.601562 1.90625 18.375 C 3.28125 17.582031 4.726562 17.050781 6.25 16.78125 C 7 16.59375 7.769531 16.414062 8.5625 16.25 C 11.113281 15.65625 13.6875 15.164062 16.28125 14.78125 C 26.664062 13.238281 37.015625 12.234375 47.328125 11.765625 C 47.953125 11.710938 48.5625 11.671875 49.15625 11.640625 C 52.332031 11.472656 55.515625 11.335938 58.703125 11.234375 C 59.847656 11.203125 60.992188 10.988281 62.140625 10.59375 C 66.066406 9.125 69.9375 7.488281 73.75 5.6875 C 77.570312 3.882812 81.304688 1.835938 84.953125 -0.453125 C 87.992188 -2.296875 90.789062 -4.476562 93.34375 -7 C 94.789062 -8.375 95.972656 -9.929688 96.890625 -11.671875 C 98.109375 -14.191406 97.882812 -16.367188 96.21875 -18.203125 C 95.039062 -19.421875 93.644531 -20.367188 92.03125 -21.046875 C 89.90625 -22.035156 87.691406 -22.820312 85.390625 -23.40625 C 83.097656 -24 80.769531 -24.507812 78.40625 -24.9375 C 71.726562 -26.03125 64.910156 -26.703125 57.953125 -26.953125 C 57.703125 -26.953125 57.460938 -26.953125 57.234375 -26.953125 C 56.960938 -26.953125 56.679688 -26.953125 56.390625 -26.953125 C 55.804688 -26.859375 55.363281 -26.5 55.0625 -25.875 C 54.894531 -25.601562 54.75 -25.34375 54.625 -25.09375 C 54.320312 -24.507812 54.007812 -23.921875 53.6875 -23.328125 C 51.21875 -18.335938 48.757812 -13.367188 46.3125 -8.421875 C 44.269531 -4.203125 42.207031 -0.0078125 40.125 4.15625 C 40.082031 4.3125 40.023438 4.445312 39.953125 4.5625 C 39.703125 5.082031 39.425781 5.570312 39.125 6.03125 C 38.769531 6.425781 38.359375 6.585938 37.890625 6.515625 C 37.609375 6.546875 37.332031 6.53125 37.0625 6.46875 C 36.582031 6.21875 36.421875 5.84375 36.578125 5.34375 C 37.003906 4.226562 37.476562 3.144531 38 2.09375 C 41.113281 -4.519531 44.222656 -11.109375 47.328125 -17.671875 C 48.347656 -19.765625 49.351562 -21.847656 50.34375 -23.921875 C 50.40625 -24.117188 50.484375 -24.296875 50.578125 -24.453125 C 50.804688 -24.941406 51.019531 -25.414062 51.21875 -25.875 C 51.488281 -26.59375 51.273438 -26.96875 50.578125 -27 C 50.222656 -27.039062 49.863281 -27.0625 49.5 -27.0625 C 49.039062 -27.09375 48.585938 -27.128906 48.140625 -27.171875 C 48.066406 -27.171875 47.96875 -27.171875 47.84375 -27.171875 C 47.300781 -27.222656 46.789062 -27.316406 46.3125 -27.453125 C 45.84375 -27.585938 45.566406 -27.945312 45.484375 -28.53125 C 45.484375 -29.195312 45.707031 -29.6875 46.15625 -30 C 46.613281 -30.320312 47.125 -30.582031 47.6875 -30.78125 C 47.875 -30.851562 48.050781 -30.910156 48.21875 -30.953125 C 49.695312 -31.578125 51.207031 -32.128906 52.75 -32.609375 C 52.90625 -32.679688 53.082031 -32.734375 53.28125 -32.765625 C 54.46875 -33.128906 55.351562 -33.878906 55.9375 -35.015625 C 58.570312 -40.003906 61.210938 -44.984375 63.859375 -49.953125 C 64.742188 -51.671875 65.660156 -53.414062 66.609375 -55.1875 C 66.734375 -55.4375 66.851562 -55.679688 66.96875 -55.921875 C 67.195312 -56.421875 67.472656 -56.910156 67.796875 -57.390625 C 68.191406 -57.984375 68.703125 -58.21875 69.328125 -58.09375 C 69.609375 -58.125 69.882812 -58.101562 70.15625 -58.03125 C 70.75 -57.757812 70.925781 -57.304688 70.6875 -56.671875 C 70.6875 -56.628906 70.671875 -56.609375 70.640625 -56.609375 C 70.191406 -55.265625 69.65625 -53.96875 69.03125 -52.71875 C 67.488281 -49.695312 65.914062 -46.664062 64.3125 -43.625 C 63.8125 -42.613281 63.28125 -41.597656 62.71875 -40.578125 C 62.4375 -40.054688 62.160156 -39.546875 61.890625 -39.046875 C 61.429688 -38.171875 60.976562 -37.285156 60.53125 -36.390625 C 60.53125 -36.390625 60.507812 -36.363281 60.46875 -36.3125 C 60.394531 -36.164062 60.335938 -36.007812 60.296875 -35.84375 C 60.253906 -35.6875 60.332031 -35.570312 60.53125 -35.5 C 60.65625 -35.445312 60.78125 -35.40625 60.90625 -35.375 L 61.015625 -35.421875 C 61.242188 -35.472656 61.5 -35.535156 61.78125 -35.609375 C 61.851562 -35.648438 61.925781 -35.6875 62 -35.71875 C 70.613281 -38.4375 79.21875 -41.253906 87.8125 -44.171875 C 96.414062 -47.085938 104.96875 -50.210938 113.46875 -53.546875 C 113.664062 -53.617188 113.84375 -53.675781 114 -53.71875 C 116.59375 -54.789062 119.175781 -55.863281 121.75 -56.9375 C 124.320312 -58.019531 126.867188 -59.191406 129.390625 -60.453125 C 131.265625 -61.359375 133.035156 -62.4375 134.703125 -63.6875 C 138.242188 -66.570312 138.394531 -69.148438 135.15625 -71.421875 C 133.632812 -72.453125 131.972656 -73.238281 130.171875 -73.78125 C 128.378906 -74.332031 126.546875 -74.722656 124.671875 -74.953125 C 120.179688 -75.628906 115.640625 -75.96875 111.046875 -75.96875 L 110.96875 -75.96875 C 106.53125 -75.9375 102.050781 -75.722656 97.53125 -75.328125 C 87.5 -74.453125 77.488281 -72.753906 67.5 -70.234375 C 58.289062 -67.960938 49.257812 -64.859375 40.40625 -60.921875 C 38.082031 -59.910156 35.820312 -58.75 33.625 -57.4375 C 33 -57.050781 32.375 -56.695312 31.75 -56.375 C 31.394531 -56.226562 31.054688 -56.191406 30.734375 -56.265625 C 30.304688 -56.191406 29.957031 -56.304688 29.6875 -56.609375 C 29.488281 -56.898438 29.476562 -57.160156 29.65625 -57.390625 C 29.832031 -57.617188 30.054688 -57.816406 30.328125 -57.984375 C 32.222656 -59.316406 34.191406 -60.429688 36.234375 -61.328125 C 36.265625 -61.328125 36.300781 -61.347656 36.34375 -61.390625 C 44.6875 -65.316406 53.222656 -68.460938 61.953125 -70.828125 C 74.535156 -74.296875 87.179688 -76.457031 99.890625 -77.3125 C 103.828125 -77.601562 107.742188 -77.75 111.640625 -77.75 C 115.878906 -77.78125 120.082031 -77.5625 124.25 -77.09375 C 128.175781 -76.707031 131.910156 -75.796875 135.453125 -74.359375 C 137.117188 -73.734375 138.554688 -72.796875 139.765625 -71.546875 C 140.785156 -70.441406 141.238281 -69.222656 141.125 -67.890625 C 141.007812 -66.554688 140.363281 -65.238281 139.1875 -63.9375 C 137.675781 -62.4375 136.003906 -61.191406 134.171875 -60.203125 C 131.929688 -58.953125 129.648438 -57.816406 127.328125 -56.796875 C 125.003906 -55.773438 122.660156 -54.789062 120.296875 -53.84375 C 120.222656 -53.8125 120.125 -53.769531 120 -53.71875 C 111.78125 -50.332031 103.488281 -47.195312 95.125 -44.3125 C 86.769531 -41.425781 78.382812 -38.644531 69.96875 -35.96875 C 68.550781 -35.5 67.140625 -35.023438 65.734375 -34.546875 C 63.765625 -33.878906 61.796875 -33.234375 59.828125 -32.609375 C 58.972656 -32.410156 58.285156 -31.9375 57.765625 -31.1875 C 57.335938 -30.46875 57.148438 -29.910156 57.203125 -29.515625 C 57.253906 -29.128906 57.703125 -28.914062 58.546875 -28.875 C 60.773438 -28.8125 63.007812 -28.695312 65.25 -28.53125 C 65.40625 -28.53125 65.546875 -28.53125 65.671875 -28.53125 C 69.910156 -28.257812 74.09375 -27.804688 78.21875 -27.171875 C 82.351562 -26.546875 86.390625 -25.625 90.328125 -24.40625 C 92.023438 -23.851562 93.660156 -23.226562 95.234375 -22.53125 C 96.285156 -22.039062 97.285156 -21.445312 98.234375 -20.75 C 102.285156 -17.601562 102.578125 -13.644531 99.109375 -8.875 C 97.972656 -7.300781 96.660156 -5.867188 95.171875 -4.578125 C 91.503906 -1.429688 87.570312 1.28125 83.375 3.5625 C 79.75 5.5625 76.066406 7.414062 72.328125 9.125 C 71.898438 9.257812 71.453125 9.453125 70.984375 9.703125 C 70.753906 9.816406 70.492188 9.9375 70.203125 10.0625 C 70.441406 10.414062 70.65625 10.628906 70.84375 10.703125 C 71.039062 10.773438 71.265625 10.789062 71.515625 10.75 C 71.515625 10.75 71.535156 10.75 71.578125 10.75 C 72.234375 10.789062 72.875 10.8125 73.5 10.8125 L 73.59375 10.8125 C 74.019531 10.8125 74.445312 10.789062 74.875 10.75 C 76.84375 10.75 78.8125 10.75 80.78125 10.75 C 92.445312 10.789062 104.066406 11.050781 115.640625 11.53125 C 128.222656 11.957031 140.753906 12.726562 153.234375 13.84375 C 157.203125 14.175781 161.171875 14.523438 165.140625 14.890625 C 169.929688 15.273438 174.710938 15.6875 179.484375 16.125 C 182.273438 16.40625 185.046875 16.742188 187.796875 17.140625 C 188.460938 17.210938 189.148438 17.289062 189.859375 17.375 C 190.367188 17.445312 190.878906 17.597656 191.390625 17.828125 Z M 52.703125 -29.3125 C 52.765625 -29.34375 52.835938 -29.414062 52.921875 -29.53125 C 53.003906 -29.65625 53.0625 -29.753906 53.09375 -29.828125 C 53.09375 -29.910156 53.070312 -29.96875 53.03125 -30 C 53 -30.039062 52.941406 -30.109375 52.859375 -30.203125 C 52.859375 -30.203125 52.835938 -30.21875 52.796875 -30.25 C 52.367188 -30.15625 51.976562 -29.941406 51.625 -29.609375 C 51.550781 -29.515625 51.519531 -29.414062 51.53125 -29.3125 C 51.550781 -29.21875 51.625 -29.171875 51.75 -29.171875 C 52.0625 -29.171875 52.378906 -29.21875 52.703125 -29.3125 Z M 49.75 14.71875 C 49.820312 14.664062 49.898438 14.640625 49.984375 14.640625 C 50.128906 14.609375 50.28125 14.539062 50.4375 14.4375 C 50.601562 14.34375 50.722656 14.195312 50.796875 14 C 50.722656 13.832031 50.648438 13.734375 50.578125 13.703125 C 50.523438 13.703125 50.476562 13.703125 50.4375 13.703125 C 40.925781 14.128906 31.390625 14.9375 21.828125 16.125 C 17.109375 16.675781 12.40625 17.554688 7.71875 18.765625 C 7.613281 18.828125 7.5 18.875 7.375 18.90625 C 6.550781 19.0625 5.8125 19.394531 5.15625 19.90625 C 4.988281 20.03125 4.882812 20.164062 4.84375 20.3125 C 4.800781 20.46875 4.875 20.609375 5.0625 20.734375 C 5.457031 20.890625 5.878906 21.019531 6.328125 21.125 C 7.847656 21.414062 9.394531 21.5625 10.96875 21.5625 C 12.3125 21.5625 13.648438 21.5 14.984375 21.375 C 26.628906 20.394531 38.21875 18.175781 49.75 14.71875 Z M 49.75 14.71875 "/></g></g></g><g clip-path="url(#58b0f69417)"><path fill="#f4af1b" d="M 62.582031 283.003906 C 61.128906 281.519531 59.679688 280.03125 58.25 278.523438 C 56.824219 277.015625 55.488281 275.414062 54.09375 273.851562 C 52.695312 272.292969 51.464844 270.617188 50.148438 268.992188 C 49.511719 268.203125 48.847656 267.351562 48.222656 266.515625 L 46.394531 263.96875 C 41.472656 257.128906 37.152344 249.929688 33.441406 242.367188 C 29.722656 234.761719 26.625 226.910156 24.15625 218.8125 L 23.253906 215.757812 C 22.949219 214.742188 22.648438 213.722656 22.417969 212.6875 L 21 206.480469 L 19.792969 200.214844 C 19.375 198.125 19.152344 196.011719 18.835938 193.90625 C 17.699219 185.4375 17.234375 176.933594 17.441406 168.390625 C 17.441406 167.328125 17.488281 166.261719 17.550781 165.1875 L 17.734375 161.992188 L 17.921875 158.792969 C 18.007812 157.726562 18.152344 156.667969 18.261719 155.636719 C 18.523438 153.511719 18.710938 151.382812 19.050781 149.269531 L 20.089844 142.957031 C 20.242188 141.902344 20.476562 140.859375 20.707031 139.800781 L 21.394531 136.644531 L 22.09375 133.492188 L 22.941406 130.390625 L 23.792969 127.289062 C 24.074219 126.257812 24.351562 125.222656 24.707031 124.207031 L 26.65625 118.121094 C 29.59375 110.050781 33.089844 102.226562 37.148438 94.652344 C 41.316406 87.144531 46.007812 79.980469 51.222656 73.15625 L 55.238281 68.136719 L 59.480469 63.308594 L 60.539062 62.109375 C 60.902344 61.707031 61.28125 61.320312 61.652344 60.949219 L 63.882812 58.640625 L 66.125 56.335938 C 66.914062 55.59375 67.703125 54.875 68.492188 54.140625 L 70.859375 51.964844 C 71.648438 51.230469 72.433594 50.496094 73.222656 49.828125 L 78.132812 45.691406 C 81.507812 43.074219 84.875 40.4375 88.457031 38.089844 L 91.101562 36.289062 C 91.976562 35.683594 92.90625 35.152344 93.816406 34.585938 C 95.644531 33.480469 97.429688 32.3125 99.289062 31.273438 L 104.90625 28.1875 C 106.785156 27.183594 108.734375 26.308594 110.640625 25.371094 C 111.605469 24.921875 112.550781 24.425781 113.53125 24.015625 L 116.457031 22.785156 C 118.429688 21.996094 120.363281 21.101562 122.382812 20.417969 L 128.375 18.261719 L 134.476562 16.425781 C 142.628906 14.113281 150.910156 12.460938 159.324219 11.460938 C 160.367188 11.304688 161.425781 11.234375 162.480469 11.148438 L 168.792969 10.640625 C 169.84375 10.59375 170.890625 10.578125 171.949219 10.554688 C 174.054688 10.554688 176.144531 10.40625 178.257812 10.445312 L 184.570312 10.632812 C 188.753906 10.792969 192.917969 11.203125 197.050781 11.714844 C 201.183594 12.226562 205.289062 12.976562 209.335938 13.910156 C 205.191406 13.65625 201.058594 13.480469 196.933594 13.507812 C 192.808594 13.53125 188.6875 13.578125 184.59375 13.917969 L 178.464844 14.421875 C 176.429688 14.601562 174.402344 14.925781 172.375 15.171875 L 169.3125 15.566406 L 166.300781 16.09375 L 163.292969 16.621094 C 162.292969 16.796875 161.28125 16.960938 160.296875 17.207031 L 154.324219 18.546875 C 152.34375 19.011719 150.378906 19.605469 148.445312 20.125 C 147.46875 20.402344 146.480469 20.636719 145.519531 20.914062 L 142.617188 21.875 L 139.738281 22.808594 L 138.292969 23.28125 L 136.875 23.824219 C 129.269531 26.570312 121.90625 29.855469 114.785156 33.6875 C 107.722656 37.472656 100.96875 41.746094 94.523438 46.507812 C 88.074219 51.269531 82.003906 56.46875 76.308594 62.105469 C 70.613281 67.742188 65.355469 73.757812 60.527344 80.15625 C 55.699219 86.550781 51.355469 93.261719 47.5 100.285156 C 39.785156 114.394531 34.277344 129.320312 30.976562 145.054688 L 29.84375 150.949219 C 29.488281 152.914062 29.257812 154.894531 28.964844 156.882812 C 28.832031 157.875 28.667969 158.863281 28.554688 159.855469 L 28.273438 162.847656 L 27.988281 165.835938 C 27.878906 166.839844 27.785156 167.832031 27.757812 168.832031 L 27.492188 174.84375 C 27.40625 176.847656 27.492188 178.859375 27.453125 180.871094 C 27.414062 182.882812 27.523438 184.886719 27.609375 186.890625 L 27.742188 189.90625 C 27.742188 190.914062 27.902344 191.910156 27.980469 192.910156 L 28.25 195.917969 C 28.34375 196.917969 28.40625 197.929688 28.554688 198.921875 L 29.34375 204.917969 L 30.464844 210.890625 C 30.625 211.890625 30.84375 212.871094 31.066406 213.855469 L 31.710938 216.824219 C 35.332031 232.808594 41.144531 247.953125 49.15625 262.257812 L 50.636719 264.953125 C 51.160156 265.839844 51.703125 266.707031 52.214844 267.589844 C 53.296875 269.332031 54.320312 271.132812 55.496094 272.820312 C 56.671875 274.507812 57.738281 276.300781 58.9375 277.980469 C 60.136719 279.660156 61.382812 281.332031 62.582031 283.003906 Z M 311.828125 72.273438 L 312.6875 73.453125 L 313.476562 74.679688 L 315.09375 77.117188 L 316.710938 79.546875 L 318.242188 82.03125 C 319.246094 83.695312 320.308594 85.3125 321.21875 87.023438 C 325.070312 93.722656 328.453125 100.652344 331.371094 107.8125 C 334.3125 114.890625 336.738281 122.144531 338.644531 129.570312 C 339.839844 134.144531 340.84375 138.761719 341.648438 143.421875 C 342.453125 148.082031 343.058594 152.769531 343.46875 157.480469 C 343.878906 162.191406 344.085938 166.914062 344.097656 171.644531 C 344.105469 176.371094 343.914062 181.09375 343.527344 185.804688 C 343.136719 190.519531 342.546875 195.207031 341.757812 199.871094 C 340.972656 204.535156 339.988281 209.15625 338.8125 213.738281 C 337.632812 218.316406 336.261719 222.839844 334.703125 227.304688 C 333.140625 231.769531 331.394531 236.15625 329.460938 240.472656 C 326.339844 247.363281 322.761719 254.007812 318.738281 260.410156 C 314.710938 266.8125 310.269531 272.914062 305.417969 278.710938 C 300.5625 284.511719 295.335938 289.957031 289.742188 295.046875 C 284.148438 300.136719 278.238281 304.824219 272.003906 309.109375 L 269.640625 310.6875 C 268.851562 311.222656 268.0625 311.769531 267.273438 312.265625 L 262.429688 315.277344 C 260.804688 316.265625 259.105469 317.140625 257.449219 318.078125 L 254.957031 319.476562 L 252.402344 320.753906 C 245.566406 324.234375 238.527344 327.222656 231.273438 329.714844 C 229.453125 330.332031 227.636719 330.960938 225.808594 331.5625 L 220.285156 333.140625 C 218.4375 333.722656 216.554688 334.117188 214.675781 334.574219 L 211.851562 335.246094 L 210.4375 335.59375 L 209.019531 335.859375 L 203.300781 336.964844 C 201.390625 337.320312 199.457031 337.527344 197.53125 337.816406 L 194.636719 338.257812 C 193.675781 338.394531 192.703125 338.464844 191.726562 338.566406 C 189.785156 338.757812 187.84375 338.960938 185.886719 339.175781 C 201.78125 340.390625 217.46875 339.09375 232.945312 335.285156 C 233.917969 335.054688 234.894531 334.851562 235.851562 334.582031 L 241.59375 332.910156 C 242.554688 332.632812 243.511719 332.359375 244.449219 332.011719 L 250.105469 330.039062 C 251.992188 329.359375 253.8125 328.546875 255.675781 327.8125 C 263.105469 324.753906 270.242188 321.125 277.09375 316.925781 L 279.671875 315.351562 C 280.519531 314.8125 281.347656 314.238281 282.183594 313.675781 C 283.839844 312.550781 285.535156 311.460938 287.175781 310.285156 L 292.003906 306.648438 L 293.203125 305.742188 L 294.363281 304.769531 L 296.691406 302.835938 L 299.058594 300.90625 C 299.847656 300.257812 300.546875 299.554688 301.296875 298.878906 C 302.78125 297.511719 304.28125 296.15625 305.730469 294.75 L 309.96875 290.429688 L 311.03125 289.347656 L 312.042969 288.21875 L 314.054688 285.964844 L 316.074219 283.699219 C 316.746094 282.910156 317.351562 282.121094 317.992188 281.332031 C 319.246094 279.753906 320.53125 278.175781 321.761719 276.597656 L 325.320312 271.683594 L 326.210938 270.460938 L 327.039062 269.191406 L 328.703125 266.652344 C 329.808594 264.953125 330.921875 263.265625 331.898438 261.492188 L 334.929688 256.238281 C 336.773438 252.632812 338.714844 249.074219 340.316406 245.351562 C 343.640625 237.976562 346.398438 230.394531 348.585938 222.605469 C 350.773438 214.816406 352.371094 206.90625 353.375 198.878906 C 354.375 190.851562 354.773438 182.792969 354.570312 174.707031 C 354.363281 166.621094 353.558594 158.59375 352.152344 150.625 L 351.007812 144.710938 L 349.585938 138.855469 C 349.152344 136.898438 348.519531 134.988281 347.96875 133.066406 L 347.109375 130.183594 C 346.816406 129.230469 346.460938 128.292969 346.140625 127.34375 C 345.460938 125.460938 344.851562 123.558594 344.113281 121.695312 L 341.855469 116.175781 C 340.207031 112.546875 338.597656 108.894531 336.6875 105.398438 C 332.992188 98.328125 328.742188 91.605469 323.9375 85.234375 C 322.804688 83.65625 321.515625 82.117188 320.292969 80.570312 L 318.441406 78.265625 C 317.808594 77.476562 317.15625 76.777344 316.5 76.042969 L 314.527344 73.839844 L 313.550781 72.746094 L 312.515625 71.6875 C 311.144531 70.277344 309.761719 68.886719 308.382812 67.507812 C 309.542969 69.109375 310.675781 70.695312 311.828125 72.273438 Z M 311.828125 72.273438 " fill-opacity="1" fill-rule="nonzero"/></g></svg>